<?xml version="1.0" encoding="UTF-8" standalone="no"?>
<svg
   width="587.6"
   height="637.36"
   version="1.1"
   id="svg68"
   sodipodi:docname="node-imap-icon.svg"
   inkscape:version="1.1.1 (3bf5ae0d25, 2021-09-20)"
   xmlns:inkscape="http://www.inkscape.org/namespaces/inkscape"
   xmlns:sodipodi="http://sodipodi.sourceforge.net/DTD/sodipodi-0.dtd"
   xmlns="http://www.w3.org/2000/svg"
   xmlns:svg="http://www.w3.org/2000/svg">
  <desc property="dc:creator">Vasily Maslyukov</desc>
  <defs
     id="defs72" />
  <sodipodi:namedview
     id="namedview70"
     pagecolor="#ffffff"
     bordercolor="#666666"
     borderopacity="1.0"
     inkscape:pageshadow="2"
     inkscape:pageopacity="0.0"
     inkscape:pagecheckerboard="0"
     showgrid="false"
     inkscape:zoom="0.45042889"
     inkscape:cx="53.28255"
     inkscape:cy="145.41696"
     inkscape:window-width="1800"
     inkscape:window-height="3121"
     inkscape:window-x="1911"
     inkscape:window-y="-9"
     inkscape:window-maximized="1"
     inkscape:current-layer="svg68" />
  <path
     fill="#001539"
     d="M102.1 174c.55-.52 1.13-1 1.72-1.44 7.27-5.41 15.74-8.36 25.43-8.84 46.44-1.3 98.1-.75 146.92-.75a2.7 2.7 0 0 0 2.7-2.72l-.5-49.75a2.45 2.45 0 0 0-2.23-2.42 10.4 10.4 0 0 1-3.55-1c-17.08-8-27.3-21-30.69-39-1.5-8.06-1.15-14.81 1.37-25.16 4.34-17.84 29.13-39.73 52.9-37.8 7.24.66 12.72 1.65 16.45 2.97 21.8 9.55 36.96 30.86 34.12 54.66-.15 3.5-.67 6.9-1.54 10.2-5.3 15.64-13.34 27.35-28.37 33.18-1.95.75-3.9 1.53-5.82 2.36a2.14 2.14 0 0 0-1.28 1.96c-.14 33.28-1.28 52.05 3 52.5 46.52.05 93.85.04 141.98-.02 5.5 0 10.02.44 13.55 1.33a48.7 48.7 0 0 1 15.83 7.33 51.8 51.8 0 0 1 10.8 9.79 32.37 32.37 0 0 1 4.03 6.4c1.02 2.16 2.02 4.3 3 6.43 3.1 7.6 6.7 14.5 6.67 22.23-.23 69.48.03 201.2-.03 203.72-1.36 16.34-4.17 30.08-12.7 41.94a33.22 33.22 0 0 1-6.24 6.46 58.71 58.71 0 0 1-22.59 11.17c-3.7.9-8.4 1.36-14.16 1.35-47.87-.07-94.78-.02-140.73.15a2.5 2.5 0 0 0-2.49 2.49l.11 42.42c0 1.65 1.42 2.98 2.9 3.27.7.14 1.4.36 2.1.66 19.9 10.94 30.44 32.1 29.54 49.86-1.6 31.65-22.5 53.82-54.54 52.36-31.87 1-53.33-35.85-47.63-62.94 2.5-14.15 9.42-25.26 20.8-33.33a40.96 40.96 0 0 1 7.05-4 51.89 51.89 0 0 1 7.6-2.71 2.01 2.01 0 0 0 1.5-1.94l.01-43.57c0-1.8-.9-2.7-2.69-2.7l-146.35-.03c-5.79 0-11.19-1.73-16.76-3.32a28.39 28.39 0 0 1-7.17-3.05c-12.83-7.87-20.93-19.38-24.3-34.55a62.22 62.22 0 0 1-1-5.78c-.25-2-.37-3.94-.37-5.83V214.3c0-2.96 1.15-5.31 1.02-8.2-.02-.4.07-.75.27-1.08a5.6 5.6 0 0 0 .8-2.94c0-.16.03-.33.1-.48 1.01-2.27 2-4.53 2.96-6.78a51.69 51.69 0 0 1 15.44-20.27c.14-.12.3-.2.5-.24a.85.85 0 0 0 .23-.08 2 2 0 0 0 .33-.24zM316.8 57.96c-.26-12.24-10.59-21.96-23.07-21.7-12.49.27-22.4 10.4-22.14 22.64.25 12.24 10.58 21.96 23.06 21.7 12.5-.27 22.4-10.4 22.15-22.64zm-21.9 268.2c4.22-2.66 8.27-5.4 12.15-8.23 51.93-37.3 106.78-77.54 154.57-112.01 2-1.43 4.08-2.57 6.1-3.94.82-.57.94-1.75.24-2.48a7.82 7.82 0 0 0-3.69-2.18 40.37 40.37 0 0 0-9.94-1.11c-53.3-.1-106.58-.13-159.87-.08a1.33 1.33 0 0 0-.76-.23c-56.57-.07-111.65-.18-165.25-.31a11.44 11.44 0 0 0-8.64 3.6c-.89.93-.74 2.43.32 3.15 54.8 38.38 115.24 82.89 166.61 120.33 3.17 2.3 5.9 3.47 8.16 3.5zm-68.7-5.9a.4.4 0 0 0-.02-.63c-37.42-27.68-71.44-53-107.6-78.97a200.5 200.5 0 0 0-5.86-4.01c-.2-.14-.5 0-.5.27l-.26 168.34c0 .47.53.74.91.46 37.72-29.41 76.42-57.14 113.32-85.45zm249.16 84.95c.21.16.51 0 .51-.26l-.28-168.12c0-.26-.3-.42-.5-.26l-113.16 83.15a.32.32 0 0 0 0 .52zm-97.1 43.2c27.97-.04 55.95-.14 83.94-.31 2.26-.01 4-.7 5.24-2.07 2.75-3.06.57-5.44-1.95-7.37-44.63-33.46-89.67-66.15-132.75-98.73a.78.78 0 0 0-.95 0 393.6 393.6 0 0 1-18.78 13.87c-8.35 5.77-17.75 7.29-28.22 4.55a45.83 45.83 0 0 1-10.54-5.48 276.42 276.42 0 0 1-17.56-13.03.9.9 0 0 0-1.09-.03c-3.32 2.36-6.6 4.87-9.86 7.53-5.55 4.54-11.3 8.45-16.85 12.76-35.69 26.98-73.76 55.89-107.48 80.4-1.65 1.2-2.14 2.7-1.46 4.47 1.26 3.3 6.4 3.5 9.5 3.49 61.4-.35 144.33-.36 248.8-.04zm-61.57 130.8a22.45 22.45 0 1 0-44.9 0 22.45 22.45 0 0 0 44.9 0z"
     id="path34" />
  <ellipse
     cx="292.9"
     cy="64.58"
     fill="#1fc5c1"
     rx="22.61"
     ry="22.17"
     transform="rotate(-1.2)"
     id="ellipse36"
     style="fill:#83fdab;fill-opacity:1" />
  <path
     fill="#fff"
     d="M294.46 196.13c.76 49.45.4 79.86.44 130.04-2.27-.03-5-1.2-8.16-3.5a63836.33 63836.33 0 0 0-124.6-90.58 1967.03 1967.03 0 0 0-42-29.75 2.06 2.06 0 0 1-.33-3.14 11.44 11.44 0 0 1 8.64-3.61c53.6.13 108.68.24 165.25.3.28 0 .53.09.76.24z"
     id="path44" />
  <path
     fill="#05b8fa"
     d="M294.46 196.13c53.3-.05 106.58-.03 159.87.08 3.78 0 7.1.38 9.94 1.1a7.82 7.82 0 0 1 3.7 2.19c.7.73.57 1.9-.26 2.48-2 1.37-4.1 2.5-6.09 3.94-51.45 37.37-107.5 77.76-154.57 112a222.28 222.28 0 0 1-12.15 8.25c-.36-45.4-.49-88.43-.44-130.04z"
     id="path46"
     style="fill:#83dcfd;fill-opacity:1" />
  <path
     fill="#ffa522"
     d="M206.1 335.37c-7.76 5.72-15.6 11.9-23.37 17.6q-18.47 13.54-36.19 27.1-5.3 4.06-10.12 7.54c-8.02 5.8-15.49 12.16-23.55 18.1a.57.57 0 0 1-.9-.45l.25-168.34a.32.33 17.2 0 1 .5-.27q3.32 2.2 5.85 4 18.4 13.2 36.96 26.75 8.57 6.25 16.12 11.88 27.48 20.53 54.53 40.35a.4.4 0 0 1 .01.64q-10.03 7.7-20.09 15.1z"
     id="path48" />
  <path
     fill="#ff4f4e"
     d="m475.36 405.2-113.43-84.96a.32.32 0 0 1 0-.52l113.15-83.15a.32.32 0 0 1 .51.26l.28 168.12a.32.32 0 0 1-.5.26z"
     id="path50" />
  <path
     fill="#ff8c19"
     d="M284.8 358.35a43.05 43.05 0 0 0 5.34 3.74 30.08 30.08 0 0 1 5.3 3.85c28.22 26.42 52.4 54.7 81.5 79.54 1.1.93 1.52 1.9 1.31 2.94-104.47-.32-187.4-.3-248.8.04-3.1.02-8.24-.18-9.5-3.5-.68-1.76-.2-3.25 1.46-4.46 44.06-34.45 85.86-61.9 124.33-93.16 3.25-2.66 6.54-5.17 9.86-7.53a.9.9 0 0 1 1.1.03c5.52 4.46 11.37 8.8 17.55 13.03 3.5 2.4 7.01 4.23 10.54 5.48z"
     id="path54" />
  <path
     fill="#ff4f4e"
     d="M378.25 448.42c.21-1.03-.23-2-1.32-2.94-28.75-25.08-54.36-53.73-81.49-79.54a30.08 30.08 0 0 0-5.3-3.85 43.05 43.05 0 0 1-5.35-3.74c10.47 2.74 19.87 1.22 28.22-4.55a389.65 389.65 0 0 0 18.78-13.86.78.78 0 0 1 .95-.01c44.92 34.27 89.55 65.84 132.75 98.73 2.52 1.93 4.7 4.3 1.95 7.37-1.23 1.37-2.98 2.06-5.24 2.07-27.99.17-55.97.27-83.95.32z"
     id="path56" />
  <circle
     cx="294.24"
     cy="579.21"
     r="22.45"
     fill="#1fc5c1"
     id="circle64"
     style="fill:#83ecfd;fill-opacity:1" />
</svg>
